<svg id="visual" viewBox="0 0 900 600" width="900" height="600" xmlns="http://www.w3.org/2000/svg" xmlns:xlink="http://www.w3.org/1999/xlink" version="1.1"><rect x="0" y="0" width="900" height="600" fill="#0b011c"></rect><path d="M0 427L64 405L129 419L193 397L257 423L321 422L386 398L450 406L514 427L579 398L643 392L707 393L771 399L836 420L900 422L900 601L836 601L771 601L707 601L643 601L579 601L514 601L450 601L386 601L321 601L257 601L193 601L129 601L64 601L0 601Z" fill="#002b36"></path><path d="M0 435L64 414L129 418L193 429L257 408L321 433L386 413L450 429L514 427L579 418L643 409L707 429L771 408L836 439L900 417L900 601L836 601L771 601L707 601L643 601L579 601L514 601L450 601L386 601L321 601L257 601L193 601L129 601L64 601L0 601Z" fill="#003c47"></path><path d="M0 457L64 447L129 440L193 425L257 427L321 426L386 440L450 437L514 453L579 437L643 446L707 428L771 445L836 436L900 453L900 601L836 601L771 601L707 601L643 601L579 601L514 601L450 601L386 601L321 601L257 601L193 601L129 601L64 601L0 601Z" fill="#004d55"></path><path d="M0 443L64 442L129 469L193 443L257 463L321 467L386 457L450 455L514 463L579 463L643 471L707 456L771 454L836 468L900 444L900 601L836 601L771 601L707 601L643 601L579 601L514 601L450 601L386 601L321 601L257 601L193 601L129 601L64 601L0 601Z" fill="#005f62"></path><path d="M0 483L64 468L129 464L193 462L257 484L321 466L386 466L450 456L514 477L579 460L643 478L707 480L771 474L836 485L900 479L900 601L836 601L771 601L707 601L643 601L579 601L514 601L450 601L386 601L321 601L257 601L193 601L129 601L64 601L0 601Z" fill="#00726c"></path><path d="M0 495L64 489L129 485L193 480L257 474L321 498L386 493L450 475L514 493L579 488L643 479L707 494L771 476L836 474L900 473L900 601L836 601L771 601L707 601L643 601L579 601L514 601L450 601L386 601L321 601L257 601L193 601L129 601L64 601L0 601Z" fill="#008573"></path><path d="M0 497L64 493L129 497L193 496L257 497L321 492L386 511L450 492L514 506L579 514L643 497L707 513L771 507L836 504L900 497L900 601L836 601L771 601L707 601L643 601L579 601L514 601L450 601L386 601L321 601L257 601L193 601L129 601L64 601L0 601Z" fill="#009776"></path><path d="M0 516L64 511L129 518L193 519L257 522L321 529L386 522L450 528L514 519L579 510L643 521L707 510L771 511L836 527L900 506L900 601L836 601L771 601L707 601L643 601L579 601L514 601L450 601L386 601L321 601L257 601L193 601L129 601L64 601L0 601Z" fill="#00aa72"></path><path d="M0 526L64 535L129 526L193 525L257 526L321 526L386 541L450 537L514 524L579 538L643 534L707 543L771 536L836 532L900 526L900 601L836 601L771 601L707 601L643 601L579 601L514 601L450 601L386 601L321 601L257 601L193 601L129 601L64 601L0 601Z" fill="#00bc69"></path><path d="M0 545L64 546L129 543L193 550L257 547L321 540L386 547L450 550L514 554L579 550L643 553L707 540L771 545L836 549L900 545L900 601L836 601L771 601L707 601L643 601L579 601L514 601L450 601L386 601L321 601L257 601L193 601L129 601L64 601L0 601Z" fill="#04ce59"></path><path d="M0 570L64 572L129 556L193 573L257 563L321 557L386 563L450 562L514 562L579 558L643 566L707 565L771 561L836 557L900 567L900 601L836 601L771 601L707 601L643 601L579 601L514 601L450 601L386 601L321 601L257 601L193 601L129 601L64 601L0 601Z" fill="#43df40"></path><path d="M0 573L64 580L129 588L193 586L257 577L321 585L386 577L450 585L514 574L579 581L643 582L707 585L771 576L836 587L900 586L900 601L836 601L771 601L707 601L643 601L579 601L514 601L450 601L386 601L321 601L257 601L193 601L129 601L64 601L0 601Z" fill="#6def00"></path></svg>